<svg xmlns="http://www.w3.org/2000/svg" viewBox="0 0 48 48"><defs><style>.cls-1{fill:#374f68}.cls-2{fill:#425b72}.cls-4{fill:#dad7e5}.cls-5{fill:#db5669}.cls-6{fill:#edebf2}.cls-7{fill:#f26674}.cls-13{fill:#919191}</style></defs><g id="Smartphone_ecommerce" data-name="Smartphone ecommerce"><path class="cls-1" d="M38 5v2H10V5a4 4 0 0 1 3.52-4H34a4 4 0 0 1 4 4z"/><path class="cls-2" d="M38 5H15c-1.52 0-2.56-1.52-1.68-3.57C13.59.81 12.33 1 34 1a4 4 0 0 1 4 4z"/><path d="M38 20.46V41H10V20.46A4 4 0 0 0 12 17a4 4 0 0 0 8 0 4 4 0 0 0 8 0 4 4 0 1 0 8 0 4 4 0 0 0 2 3.46z" style="fill:#9fdbf3"/><path class="cls-1" d="M38 41c0 1.9.13 2.83-.52 4A4 4 0 0 1 34 47H14a4 4 0 0 1-4-4v-2z"/><path class="cls-2" d="M38 41c0 1.9.13 2.83-.52 4H17a4 4 0 0 1-4-4z"/><path class="cls-4" d="M25 45h-2a1 1 0 0 1 0-2h2a1 1 0 0 1 0 2z"/><path class="cls-5" d="M44 17h-8L32 7h6l6 10z"/><path class="cls-4" d="M36 17h-8L26 7h6l4 10z"/><path class="cls-5" d="M28 17h-8l2-10h4l2 10z"/><path class="cls-4" d="m22 7-2 10h-8l4-10h6z"/><path class="cls-5" d="M16 7c-3.36 8.38-2.58 6.44-4 10H4l6-10z"/><path class="cls-6" d="m22 7-2 10c-2.11 0-4.82.07-6.83-2.93L16 7z"/><path class="cls-7" d="M28 17h-8l2-10h4l2 10z"/><path class="cls-6" d="M36 17h-8L26 7h6l4 10z"/><path class="cls-7" d="M44 17h-8L32 7h6l6 10zM16 7l-2.83 7.07A6.56 6.56 0 0 1 13 7z"/><path class="cls-5" d="M28 17a4 4 0 0 1-8 0z"/><path d="M20 17a4 4 0 0 1-8 0z" style="fill:#c6c3d8"/><path d="M12 17a4 4 0 0 1-8 0z" style="fill:#c4455e"/><path class="cls-4" d="M36 17a4 4 0 0 1-8 0z"/><path class="cls-5" d="M44 17a4 4 0 0 1-8 0z"/><path class="cls-1" d="M12 17v24h-2V20.46A4 4 0 0 0 12 17z"/><path d="M34.76 19.89a3.42 3.42 0 0 1-.79.58 4 4 0 0 1-7.21-.58 3.42 3.42 0 0 1-.79.58 4 4 0 0 1-7.21-.58 3.42 3.42 0 0 1-.79.58 4 4 0 0 1-5 1.73V41H38V22.46a4 4 0 0 1-3.24-2.57zM30.5 31.5h-1.12l-.66 5.25a2 2 0 0 1-2 1.75h-8.45a2 2 0 0 1-2-1.75l-.66-5.25H14.5a1 1 0 0 1 0-2h3.72l-.7-2.8a1 1 0 0 1 2-.4l.8 3.2h4.44l.8-3.2a1 1 0 0 1 2 .4l-.7 2.8h3.64a1 1 0 0 1 0 2z" style="fill:#b2e5fb"/><path class="cls-1" d="M38 20.46V41h-2V17a4 4 0 0 0 2 3.46z"/><path class="cls-2" d="M38 22.46V41h-2V21.61a3.93 3.93 0 0 0 2 .85z"/><path d="m31 29-.78 6.25a2 2 0 0 1-2 1.75h-8.45a2 2 0 0 1-2-1.75L17 29z" style="fill:#fc6"/><path d="m31 29-.78 6.25a2 2 0 0 1-2 1.75h-6.45a2 2 0 0 1-2-1.75L19 29z" style="fill:#ffde76"/><path class="cls-4" d="M32 30H16a1 1 0 0 1 0-2h16a1 1 0 0 1 0 2z"/><path class="cls-6" d="M32 30H18a1 1 0 0 1 0-2h14a1 1 0 0 1 0 2z"/><path class="cls-13" d="m20 29.2-1-4a1 1 0 0 1 2-.4l1 4a1 1 0 0 1-2 .4zM26 28.8l1-4a1 1 0 0 1 2 .4l-1 4a1 1 0 0 1-2-.4z"/></g></svg>
